<?xml version="1.0" standalone="no"?>
<!DOCTYPE svg PUBLIC "-//W3C//DTD SVG 20010904//EN"
 "http://www.w3.org/TR/2001/REC-SVG-20010904/DTD/svg10.dtd">
<svg version="1.0" xmlns="http://www.w3.org/2000/svg"
 width="1000.000000pt" height="1000.000000pt" viewBox="0 0 1000.000000 1000.000000"
 preserveAspectRatio="xMidYMid meet">
<metadata>
Created by potrace 1.14, written by Peter Selinger 2001-2017
</metadata>
<g transform="translate(0.000000,1000.000000) scale(0.100000,-0.100000)"
fill="#000000" stroke="none">
<path d="M0 5000 l0 -5000 5000 0 5000 0 0 5000 0 5000 -5000 0 -5000 0 0
-5000z m4414 2918 c-5 -8 -2 -9 10 -5 11 4 29 0 44 -11 35 -23 71 -39 105 -47
16 -3 34 -10 40 -15 140 -113 202 -169 302 -273 175 -182 245 -263 245 -285 0
-6 9 -13 19 -17 12 -3 18 -12 15 -20 -3 -7 4 -23 15 -34 12 -12 21 -27 21 -33
0 -10 -3 -9 -9 1 -5 8 -14 10 -22 6 -9 -6 -11 -3 -6 8 4 11 1 17 -8 17 -25 0
-30 1 -43 12 -9 8 -11 7 -6 -6 3 -9 1 -16 -5 -16 -7 0 -8 -8 -1 -25 5 -14 9
-29 8 -33 -2 -9 10 -40 28 -74 8 -14 14 -34 14 -43 0 -9 8 -29 19 -43 10 -15
24 -45 31 -67 7 -22 19 -52 27 -67 8 -16 11 -28 7 -28 -3 0 -1 -7 6 -15 7 -8
9 -15 4 -15 -5 0 -2 -6 6 -13 8 -7 17 -23 19 -37 1 -14 6 -27 10 -30 10 -8 42
-82 32 -76 -5 3 -4 -5 2 -19 7 -14 15 -25 19 -25 4 0 4 -8 1 -17 -5 -12 -2
-15 9 -11 10 4 18 -4 27 -28 7 -19 16 -34 21 -34 4 0 11 -11 14 -25 4 -14 11
-25 16 -25 6 0 10 -7 10 -16 0 -8 5 -12 10 -9 6 3 10 -1 10 -10 0 -9 5 -13 10
-10 6 3 10 -3 10 -13 0 -11 9 -30 19 -43 15 -19 22 -21 32 -12 10 10 9 16 -2
29 -11 13 -11 18 -2 21 16 6 6 89 -14 121 -7 12 -11 27 -8 32 4 6 -1 13 -10
16 -10 4 -13 13 -10 25 4 11 1 21 -7 24 -8 3 -13 18 -12 33 0 15 -8 46 -19 68
-19 40 -18 74 1 74 8 0 36 -50 33 -58 -1 -1 5 -15 13 -30 35 -64 86 -185 106
-253 13 -41 26 -83 31 -94 5 -11 11 -48 14 -82 6 -68 7 -72 32 -193 14 -65 18
-129 17 -275 -1 -170 -4 -201 -27 -298 -65 -260 -198 -575 -302 -712 -29 -38
-84 -122 -122 -185 -38 -63 -131 -200 -206 -305 -168 -233 -257 -407 -308
-603 -37 -140 -36 -475 1 -597 5 -16 12 -46 14 -65 3 -19 8 -53 11 -75 3 -22
7 -51 10 -65 11 -49 19 -105 35 -235 6 -49 14 -101 17 -115 3 -14 7 -140 9
-280 3 -216 0 -269 -15 -350 -37 -190 -96 -369 -143 -434 -34 -49 -34 -44 -3
86 53 217 60 297 59 663 0 256 -5 370 -17 460 -25 186 -46 309 -56 325 -5 9
-12 30 -16 49 -4 18 -14 35 -23 37 -31 10 -47 22 -44 34 2 8 -3 10 -14 6 -14
-5 -15 -4 -4 9 8 10 9 15 1 15 -6 0 -11 13 -11 29 0 17 -4 32 -8 35 -26 16
-20 287 11 456 27 148 68 252 121 305 16 17 47 68 69 115 35 75 122 299 131
340 8 32 49 91 58 82 5 -5 2 -39 -7 -81 -8 -40 -15 -82 -15 -94 1 -18 4 -16
19 13 41 76 71 143 71 156 0 8 5 14 12 14 6 0 9 3 6 6 -6 5 11 68 32 119 23
59 59 163 64 186 12 56 19 105 18 119 -1 8 -4 44 -7 79 -3 35 -10 72 -16 82
-7 14 -6 19 2 19 8 0 8 4 -1 15 -7 8 -10 29 -8 45 3 17 1 33 -3 36 -22 13 -31
246 -12 299 18 49 27 125 16 125 -5 0 -26 -35 -47 -77 -21 -43 -66 -125 -100
-183 -74 -126 -142 -259 -186 -360 -17 -41 -38 -90 -47 -109 -8 -18 -16 -39
-17 -45 -1 -6 -10 -25 -19 -42 -9 -17 -13 -34 -10 -38 4 -3 1 -6 -5 -6 -7 0
-12 -4 -12 -9 0 -5 -8 -26 -17 -47 -9 -22 -17 -41 -18 -44 -6 -21 -19 -40 -26
-40 -5 0 -8 3 -8 8 1 4 1 21 0 37 -2 29 -2 29 -17 10 -8 -11 -20 -27 -27 -35
-17 -22 -87 -166 -87 -179 0 -6 -9 -30 -19 -54 -11 -23 -21 -53 -24 -67 -8
-38 -61 -180 -83 -220 l-19 -35 -3 44 c-7 101 100 558 164 698 8 17 14 33 14
37 0 9 137 329 185 431 211 447 269 592 320 795 55 218 65 350 40 525 -31 218
-78 338 -218 561 -42 67 -84 141 -94 165 -15 39 -48 95 -71 124 -4 6 -17 25
-27 43 -11 17 -23 32 -28 32 -4 0 -6 4 -2 10 6 9 -7 26 -77 104 -21 22 -38 45
-38 50 0 12 -48 56 -61 56 -10 0 -53 66 -47 74 2 2 -6 14 -16 25 -15 17 -16
20 -4 16 9 -4 19 -2 23 4 3 6 13 11 21 11 9 0 12 -5 8 -12z m846 -752 c0 -2
-7 -7 -16 -10 -8 -3 -12 -2 -9 4 6 10 25 14 25 6z m180 -316 c4 0 10 -9 13
-20 3 -11 0 -20 -6 -20 -8 0 -7 -3 1 -9 11 -6 10 -10 -4 -15 -9 -3 -19 -4 -22
-1 -3 3 -1 5 4 5 5 0 9 11 9 25 0 14 -5 25 -12 25 -6 0 -15 5 -19 12 -5 8 -2
9 10 5 10 -4 21 -7 26 -7z m-820 -2220 c0 -5 -5 -10 -11 -10 -5 0 -7 5 -4 10
3 6 8 10 11 10 2 0 4 -4 4 -10z m258 -853 c7 -29 15 -63 18 -77 3 -14 12 -44
20 -68 8 -24 12 -47 9 -52 -3 -5 -2 -10 2 -12 5 -1 21 -30 37 -63 58 -123 79
-161 107 -196 16 -20 29 -44 29 -54 0 -9 4 -14 9 -11 5 3 14 -8 20 -24 10 -31
90 -152 104 -158 4 -2 7 -9 7 -16 0 -7 11 -29 24 -49 13 -19 21 -39 18 -43 -4
-4 -1 -4 6 0 12 7 21 -6 26 -40 1 -9 11 -23 21 -30 10 -8 16 -14 12 -14 -4 0
-3 -10 4 -21 15 -29 29 -79 21 -76 -8 2 -12 -7 -12 -24 0 -8 5 -8 15 1 19 16
20 6 0 -13 -12 -12 -20 -13 -39 -4 -13 6 -21 17 -19 24 4 9 0 11 -13 6 -11 -4
-15 -3 -10 5 3 6 -3 16 -14 22 -11 6 -20 17 -20 25 0 8 -4 16 -10 16 -5 1 -14
3 -20 4 -5 1 -14 3 -20 4 -5 0 -7 7 -4 15 3 7 -1 20 -9 27 -7 8 -14 19 -15 24
-1 6 -9 18 -17 28 -9 10 -20 28 -26 40 -5 12 -20 40 -34 62 -14 22 -30 50 -35
63 -5 12 -14 22 -19 22 -6 0 -8 7 -5 15 4 8 2 15 -4 15 -5 0 -13 12 -16 26 -4
14 -21 56 -39 92 -17 37 -32 69 -33 72 -4 18 -36 95 -55 132 -11 23 -11 31 0
24 5 -4 7 3 4 14 -3 11 -9 20 -13 20 -5 0 -11 19 -15 41 -4 23 -13 56 -20 74
-8 17 -15 60 -17 96 -2 35 -7 67 -13 71 -6 4 -2 8 8 8 9 0 17 5 17 12 0 25 16
-6 28 -55z"/>
</g>
</svg>
